<?xml version="1.0" encoding="utf-8"?>
<!-- Generator: Adobe Illustrator 19.2.1, SVG Export Plug-In . SVG Version: 6.00 Build 0)  -->
<svg version="1.1" id="Capa_2" xmlns="http://www.w3.org/2000/svg" xmlns:xlink="http://www.w3.org/1999/xlink" x="0px" y="0px"
	 viewBox="0 0 503 105.3" style="enable-background:new 0 0 503 105.3;" xml:space="preserve">
<style type="text/css">
	.st0{fill:#FFFFFF;}
	.st1{fill:none;stroke:#FFFFFF;stroke-width:6;stroke-miterlimit:10;}
</style>
<g>
	<path class="st0" d="M42.1,37.4h30.6l-0.8,6.1H47.4l-2.3,18.4h24.5L68.9,68H38.3L42.1,37.4z"/>
	<path class="st0" d="M105.7,68H75.1l3.8-30.6h6.1l-3,24.5h24.5L105.7,68z"/>
	<path class="st0" d="M121.7,37.4l-3,24.5h18.4l3-24.5h6.1L142.4,68h-30.6l3.8-30.6H121.7z"/>
	<path class="st0" d="M178,52.7l2.7,3.1L179.2,68h-30.6l3.8-30.6h30.6l-1.5,12.2L178,52.7z M156.2,55.7l-0.8,6.1h18.4l0.8-6.1H156.2
		z M175.3,49.6l0.8-6.1h-18.4l-0.8,6.1H175.3z"/>
	<path class="st0" d="M244.2,37.4l-0.8,6.1h-24.5l-0.8,6.1h24.5l-0.8,6.1h-24.5l-0.8,6.1h24.5l-0.8,6.1h-30.6l3.8-30.6H244.2z"/>
	<path class="st0" d="M280.2,43.5h-24.5l-0.8,6.1h24.5L277.2,68h-30.6l0.8-6.1h24.5l0.8-6.1h-24.5l2.3-18.4h30.6L280.2,43.5z"/>
	<path class="st0" d="M316.9,43.5h-24.5l-0.8,6.1h24.5L313.9,68h-30.6l0.8-6.1h24.5l0.8-6.1h-24.5l2.3-18.4h30.6L316.9,43.5z"/>
	<path class="st0" d="M354.4,37.4l-0.8,6.1h-24.5l-0.8,6.1h24.5l-0.8,6.1h-24.5l-0.8,6.1h24.5l-0.8,6.1h-30.6l3.8-30.6H354.4z"/>
	<path class="st0" d="M356.8,68l3.8-30.6h6.1l15.7,21.7l2.7-21.7h6.1L387.4,68h-6.1l-15.8-21.1L362.9,68H356.8z"/>
	<path class="st0" d="M397.3,37.4h30.6l-0.8,6.1h-24.5l-2.3,18.4h24.5l-0.8,6.1h-30.6L397.3,37.4z"/>
	<path class="st0" d="M464.7,37.4l-0.8,6.1h-24.5l-0.8,6.1h24.5l-0.8,6.1h-24.5l-0.8,6.1h24.5l-0.8,6.1h-30.6l3.8-30.6H464.7z"/>
</g>
<rect x="21.5" y="21.2" class="st1" width="460" height="63"/>
</svg>
