<?xml version="1.0" encoding="utf-8"?>
<!-- Generator: Adobe Illustrator 19.2.1, SVG Export Plug-In . SVG Version: 6.00 Build 0)  -->
<svg version="1.1" id="Capa_1" xmlns="http://www.w3.org/2000/svg" xmlns:xlink="http://www.w3.org/1999/xlink" x="0px" y="0px"
	 viewBox="0 0 986 134" style="enable-background:new 0 0 986 134;" xml:space="preserve">
<style type="text/css">
	.st0{fill:#FFFFFF;}
</style>
<g>
	<path class="st0" d="M536,13.2v83.4h71.3V37.4h-60.7V13.2H536z M596.8,48v38h-50.2V48H596.8z"/>
	<rect x="899.1" y="86" class="st0" width="71.3" height="10.5"/>
	<rect x="403.2" y="37.4" class="st0" width="71.3" height="10.5"/>
	<polygon class="st0" points="631.4,96.6 631.4,48 692.1,48 692.1,37.4 620.8,37.4 620.8,96.6 	"/>
	<rect x="512" y="13.2" class="st0" width="10.5" height="83.4"/>
	<polygon class="st0" points="318.4,37.5 318.4,96.6 389.7,96.6 389.7,37.5 379.2,37.5 379.2,86 359.4,86 359.4,37.5 348.8,37.5 
		348.8,86 329,86 329,37.5 	"/>
	<path class="st0" d="M474.5,96.6V61.8h-71.3v34.8H474.5z M413.8,72.3H464V86h-50.2V72.3z"/>
	<rect x="488" y="13.2" class="st0" width="10.5" height="83.4"/>
	<rect x="705.6" y="37.5" class="st0" width="10.5" height="59"/>
	<rect x="100.3" y="86" class="st0" width="71.3" height="10.5"/>
	<rect x="899.1" y="37.4" class="st0" width="71.3" height="10.5"/>
	<path class="st0" d="M15.6,13.2v83.4h71.3V37.4H26.1V13.2H15.6z M76.3,48v38H26.1V48H76.3z"/>
	<rect x="100.3" y="61.8" class="st0" width="71.3" height="10.5"/>
	<rect x="100.3" y="37.4" class="st0" width="71.3" height="10.5"/>
	<rect x="899.1" y="61.8" class="st0" width="71.3" height="10.5"/>
	<path class="st0" d="M245.8,120.8h639.8V37.4h-71.3v59.1h60.7v13.7H256.4V37.4h-71.3v59.1h10.5V48h50.2V120.8z M824.9,86V48h50.2
		v38H824.9z"/>
	<path class="st0" d="M729.6,96.6h71.3V13.2h-10.5v24.2h-60.7V96.6z M740.2,48h50.2v38h-50.2V48z"/>
</g>
</svg>
